<?xml version="1.0" encoding="iso-8859-1"?>
<!-- Uploaded to: SVG Repo, www.svgrepo.com, Generator: SVG Repo Mixer Tools -->
<svg height="800px" width="800px" version="1.1" id="Layer_1" xmlns="http://www.w3.org/2000/svg" xmlns:xlink="http://www.w3.org/1999/xlink" 
	 viewBox="0 0 512 512" xml:space="preserve">
<path style="fill:#DABA75;" d="M319.11,3.383c-29.338,8.033-51.59,28.993-62.056,54.827c22.166,16.899,51.992,23.601,81.331,15.568
	c29.338-8.033,51.591-28.993,62.056-54.827C378.275,2.05,348.449-4.65,319.11,3.383z"/>
<path style="fill:#492D25;" d="M255.367,2.956c-4.713,0-8.533,3.82-8.533,8.533v117.458h17.067V11.489
	C263.901,6.776,260.08,2.956,255.367,2.956z"/>
<path style="fill:#C3A458;" d="M331.627,243.427v-61.608c0-41.767-33.859-75.626-75.627-75.626s-75.627,33.859-75.627,75.626v61.608
	c-41.566,25.478-69.3,71.322-69.3,123.648C111.073,447.115,175.96,512,256,512s144.927-64.885,144.927-144.927
	C400.927,314.748,373.194,268.905,331.627,243.427z"/>
<g>
	<path style="fill:#FFFFFF;" d="M256,479.574c-62.033,0-112.5-50.467-112.5-112.5c0-4.714,3.821-8.533,8.533-8.533
		c4.713,0,8.533,3.82,8.533,8.533c0,52.622,42.811,95.433,95.433,95.433c4.713,0,8.533,3.82,8.533,8.533
		C264.533,475.754,260.713,479.574,256,479.574z"/>
	<path style="fill:#FFFFFF;" d="M221.333,190.352c-4.713,0-8.533-3.82-8.533-8.533c0-23.821,19.38-43.2,43.2-43.2
		c4.713,0,8.533,3.82,8.533,8.533c0,4.714-3.821,8.533-8.533,8.533c-14.41,0-26.134,11.724-26.134,26.134
		C229.866,186.531,226.046,190.352,221.333,190.352z"/>
</g>
</svg>